<svg version="1.2" xmlns="http://www.w3.org/2000/svg" viewBox="0 0 1920 1920" width="1920" height="1920">
	<title>sound-on-svg</title>
	<style>
		.s0 { fill: #ffffff } 
	</style>
	<path id="Layer" fill-rule="evenodd" class="s0" d="m1129.4 113v1694.1h-225.9l-451.7-451.7v-790.6l451.7-451.8zm542.6 248.1c160 160 248 372.8 248 599 0 226.2-88 438.9-248 598.9l-79.9-79.8c138.7-138.6 215-323 215-519.1 0-196.2-76.3-380.5-215-519.2zm-1333.1 203.7v790.6h-169.4c-93.8 0-169.4-75.6-169.4-169.4v-451.8c0-93.7 75.6-169.4 169.4-169.4zm1093.9 36.1c95.8 97 148.4 224.7 148.4 359.2 0 134.6-52.6 262.2-148.4 359.2l-80.3-79.1c74.7-75.9 115.8-175.4 115.8-280.1 0-104.6-41.1-204.1-115.8-280z"/>
</svg>